<svg width="31" height="28" viewBox="0 0 31 28" fill="none" xmlns="http://www.w3.org/2000/svg">
<path d="M1.02984 24.2568H1.75617C2.37281 24.2568 2.78601 23.8574 2.78601 23.229V21.5369C2.91703 21.5741 3.32695 21.5997 3.62507 21.5997H26.528C26.8261 21.5997 27.236 21.5741 27.367 21.5369V23.229C27.367 23.8574 27.7802 24.2568 28.3969 24.2568H29.1232C29.7473 24.2568 30.153 23.8574 30.153 23.229V15.0372C30.153 12.7145 28.8879 11.4653 26.5568 11.4653H3.59624C1.26726 11.4653 0 12.7145 0 15.0372V23.229C0 23.8574 0.405702 24.2568 1.02984 24.2568ZM2.64116 19.623C2.37819 19.623 2.22163 19.4451 2.22163 19.1491V14.8731C2.22163 14.0036 2.79491 13.442 3.67944 13.442H26.4832C27.3581 13.442 27.9314 14.0036 27.9314 14.8731V19.1491C27.9314 19.4451 27.7748 19.623 27.5119 19.623H2.64116ZM3.03422 11.8485H6.18164V9.30788C6.18164 8.18218 6.80367 7.57187 7.9507 7.57187H12.1526C13.29 7.57187 13.912 8.18218 13.912 9.30788V11.8485H16.241V9.30788C16.241 8.18218 16.863 7.57187 18.0005 7.57187H22.2023C23.3494 7.57187 23.9714 8.18218 23.9714 9.30788V11.8485H27.1188V7.36984C27.1188 5.14914 25.927 4 23.748 4H6.405C4.23562 4 3.03422 5.14914 3.03422 7.36984V11.8485Z" fill="black"/>
</svg>
