<svg width="39" height="28" viewBox="0 0 39 28" fill="none" xmlns="http://www.w3.org/2000/svg">
<path d="M7.62726 26.2201C11.827 26.2201 15.2386 22.8085 15.2386 18.6045C15.2386 14.3909 11.8387 10.9932 7.62726 10.9932C3.40101 10.9932 0 14.3909 0 18.6045C0 22.8181 3.41156 26.2201 7.62726 26.2201ZM7.62726 24.144C4.55015 24.144 2.08569 21.6816 2.08569 18.6045C2.08569 15.5412 4.56187 13.0672 7.62726 13.0672C10.6884 13.0672 13.1646 15.5412 13.1646 18.6045C13.1646 21.6699 10.6884 24.144 7.62726 24.144ZM31.2372 26.2201C35.4391 26.2201 38.8486 22.8085 38.8486 18.6045C38.8486 14.3909 35.4412 10.9932 31.2372 10.9932C27.0215 10.9932 23.6004 14.3909 23.6004 18.6045C23.6004 22.8181 27.0215 26.2201 31.2372 26.2201ZM31.2372 24.144C28.1601 24.144 25.6882 21.6816 25.6882 18.6045C25.6882 15.5412 28.1622 13.0672 31.2372 13.0672C34.2909 13.0672 36.7746 15.5626 36.7746 18.6045C36.7746 21.6699 34.2909 24.144 31.2372 24.144ZM20.1576 3.03007C20.1576 3.59937 20.6184 4.05054 21.1877 4.05054H24.284C24.3841 4.05054 24.4139 4.07819 24.4512 4.14522L30.2845 19.0899L32.2073 18.4301L26.0761 2.8632C25.8398 2.25219 25.4151 2 24.6806 2H21.1877C20.6184 2 20.1576 2.46289 20.1576 3.03007ZM27.8257 10.6074V8.6942L15.1263 10.4907V12.406L27.8257 10.6074ZM17.9906 19.7933V17.8801H7.7803V19.7933H17.9906ZM19.3408 21.2293C20.7719 21.2293 21.9283 20.0708 21.9283 18.6514C21.9283 17.2203 20.7719 16.0735 19.3408 16.0735C17.9023 16.0735 16.763 17.2065 16.7491 18.6493C16.7236 20.059 17.8863 21.2293 19.3408 21.2293ZM19.3526 19.4867C18.8742 19.4867 18.4992 19.1063 18.4992 18.6694C18.4992 18.2007 18.8763 17.8161 19.3526 17.8161C19.8171 17.8161 20.1804 18.189 20.1804 18.6694C20.1804 19.118 19.8213 19.4867 19.3526 19.4867ZM7.62726 20.2524C8.54062 20.2524 9.28475 19.5179 9.28475 18.6045C9.28475 17.6794 8.55233 16.947 7.62726 16.947C6.70218 16.947 5.98898 17.6677 5.97726 18.6024C5.96555 19.5179 6.68836 20.2524 7.62726 20.2524ZM31.2372 20.262C32.1602 20.262 32.8851 19.5179 32.8851 18.6045C32.8851 17.6794 32.1719 16.9566 31.2372 16.9566C30.3122 16.9566 29.5894 17.6677 29.5776 18.6024C29.5659 19.5179 30.3004 20.262 31.2372 20.262ZM18.8559 16.7841L20.5744 17.7514L28.1018 9.70084L25.6769 9.64319L18.8559 16.7841ZM6.79664 18.0354L8.49702 19.0006L15.5836 11.652L13.9249 10.5322L6.79664 18.0354ZM17.6086 17.9604L19.3026 16.741L13.9807 6.75851L11.993 7.18624L17.6086 17.9604ZM9.66235 6.49249C9.66235 7.05968 10.1252 7.51296 10.6924 7.51296H15.6586C16.2279 7.51296 16.6887 7.05968 16.6887 6.49249C16.6887 5.93492 16.2162 5.46242 15.6586 5.46242H10.6924C10.1348 5.46242 9.66235 5.93492 9.66235 6.49249Z" fill="black"/>
</svg>
