<svg width="38" height="28" viewBox="0 0 38 28" fill="none" xmlns="http://www.w3.org/2000/svg">
<path d="M0 15.5626C0 21.968 6.01359 26.239 15.0726 26.239C24.1476 26.239 30.1591 21.9701 30.1591 15.5626C30.1591 12.792 23.9379 10.617 15.0726 10.617C6.22124 10.617 0 12.792 0 15.5626ZM2.19046 15.5626C2.19046 14.337 8.58209 12.684 15.0726 12.684C21.5653 12.684 27.9666 14.337 27.9666 15.5626C27.9666 16.7433 21.9035 18.2888 15.0726 18.2888C8.24388 18.2888 2.19046 16.7433 2.19046 15.5626ZM2.76256 18.2407C5.18505 19.5465 10.0561 20.4814 15.0726 20.4814C20.1136 20.4814 24.9994 19.5422 27.4767 18.1943C26.3691 21.7205 21.4793 24.0465 15.0726 24.0465C8.76631 24.0465 3.93349 21.769 2.76256 18.2407ZM27.7078 14.7708L35.5823 9.79012C39.1992 7.50965 35.7166 2.00537 31.3176 5.20482L21.6886 12.2258L24.0508 12.829L32.8889 6.73668C34.4058 5.68386 35.3974 7.32098 34.2049 8.07075L25.777 13.4527L27.7078 14.7708ZM8.10585 18.8126L21.0159 18.8511C21.0888 16.2997 19.028 14.5667 16.578 14.5667C15.0588 14.5667 13.7039 15.2316 12.8829 16.28C12.4917 16.1562 12.1294 16.1019 11.6913 16.1019C9.86859 16.1019 8.34304 17.2864 8.10585 18.8126Z" fill="black"/>
</svg>
