<svg width="28" height="28" viewBox="0 0 28 28" fill="none" xmlns="http://www.w3.org/2000/svg">
<path d="M3 14.0726C3 14.4268 3.15422 14.7701 3.42023 15.0265L11.1488 22.7412C11.4253 23.0103 11.7326 23.1432 12.0623 23.1432C12.7884 23.1432 13.3256 22.6243 13.3256 21.9181C13.3256 21.5546 13.178 21.2291 12.9462 21.009L10.3212 18.3519L5.95474 14.364L5.5378 15.1133L9.59177 15.3519H23.8486C24.6183 15.3519 25.1414 14.8276 25.1414 14.0726C25.1414 13.3177 24.6183 12.7934 23.8486 12.7934H9.59177L5.5378 13.032L5.95474 13.793L10.3212 9.79342L12.9462 7.1342C13.178 6.90241 13.3256 6.58858 13.3256 6.22507C13.3256 5.5189 12.7884 5 12.0623 5C11.7326 5 11.4253 5.12328 11.1295 5.42117L3.42023 13.1187C3.15422 13.3751 3 13.7185 3 14.0726Z" fill="black"/>
</svg>
