<svg width="28" height="28" viewBox="0 0 28 28" fill="none" xmlns="http://www.w3.org/2000/svg">
<path d="M19.3323 25.3601C21.3894 25.3601 22.7771 24.7714 24.0219 23.3996C24.1135 23.308 24.203 23.2067 24.2851 23.113C24.9713 22.3383 25.3142 21.5312 25.3142 20.7823C25.3142 19.9069 24.8368 19.1133 23.7896 18.3847L20.3035 15.9626C19.2024 15.2023 17.9403 15.1372 16.9538 16.1183L16.081 16.9932C15.7756 17.3007 15.4927 17.3166 15.1548 17.0766C14.5198 16.655 13.3163 15.6008 12.4913 14.7779C11.649 13.9451 10.808 12.9837 10.3393 12.2708C10.1152 11.9232 10.1269 11.652 10.4323 11.3445L11.2977 10.4717C12.2905 9.48523 12.2274 8.21351 11.465 7.12414L8.99445 3.58742C8.28687 2.57609 7.46163 2.09773 6.58414 2.08812C5.82898 2.07851 5.04289 2.40992 4.26617 3.09195C4.16492 3.18148 4.07117 3.26141 3.98796 3.335C2.59297 4.61258 2 5.98132 2 8.09937C2 11.5543 4.00344 15.6303 7.89828 19.504C11.7718 23.3544 15.8131 25.3601 19.3323 25.3601ZM19.3271 23.4036C16.3409 23.4537 12.608 21.313 9.3746 18.1102C6.12195 14.8862 3.91366 11.0265 3.96382 8.04031C3.98304 6.77867 4.43585 5.67593 5.32249 4.90648C5.41085 4.82984 5.4821 4.76281 5.57046 4.69999C5.90304 4.4164 6.25695 4.26499 6.58203 4.26499C6.91976 4.26499 7.22656 4.40023 7.45343 4.75179L9.66359 8.05437C9.935 8.45562 9.94578 8.91007 9.54875 9.30077L8.60187 10.2392C7.72156 11.1048 7.79281 12.1102 8.36187 12.9059C8.99609 13.7956 10.1773 15.1355 11.1704 16.1105C12.2108 17.1521 13.6562 18.4409 14.5196 19.0637C15.3174 19.6348 16.3229 19.7061 17.1863 18.8237L18.1248 17.8789C18.5155 17.4797 18.9603 17.4948 19.3733 17.7544L22.6252 19.914C22.9831 20.1505 23.112 20.4476 23.112 20.7929C23.112 21.118 22.9627 21.4719 22.677 21.8066C22.6046 21.8949 22.5472 21.9662 22.4705 22.0545C21.7011 22.9412 20.5983 23.3844 19.3271 23.4036Z" fill="black"/>
</svg>
