<svg width="28" height="28" viewBox="0 0 28 28" fill="none" xmlns="http://www.w3.org/2000/svg">
<path d="M4.84421 24.5734H23.7388C25.9853 24.5734 27.2905 23.2682 27.2905 20.7676V7.81749C27.2905 5.32656 25.9757 4.02133 23.4442 4.02133H4.5496C2.30523 4.02133 1 5.31695 1 7.81749V20.7676C1 23.2778 2.31484 24.5734 4.84421 24.5734ZM4.83929 22.4008C3.74757 22.4008 3.15366 21.8387 3.15366 20.6938V7.89132C3.15366 6.75811 3.74757 6.19397 4.83929 6.19397H23.4491C24.5237 6.19397 25.1369 6.75811 25.1369 7.90093V20.7034C25.1369 21.8387 24.5237 22.4008 23.4491 22.4008H4.83929ZM14.1634 17.4848C15.0301 17.4848 15.8587 17.1238 16.7001 16.2941L26.1292 7.02272L24.727 5.60664L15.5055 14.7152C15.0163 15.2022 14.5951 15.4143 14.1634 15.4143C13.7221 15.4143 13.303 15.1926 12.8214 14.7152L3.56147 5.5682L2.1496 6.98218L11.6247 16.2941C12.4682 17.1238 13.2871 17.4848 14.1634 17.4848ZM24.5802 22.8168L25.9846 21.4007L18.4975 13.9905L17.091 15.3948L24.5802 22.8168ZM2.33265 21.4103L3.73912 22.8264L11.2358 15.3948L9.82187 13.9905L2.33265 21.4103Z" fill="black"/>
</svg>
