<svg width="41" height="28" viewBox="0 0 41 28" fill="none" xmlns="http://www.w3.org/2000/svg">
<path fill-rule="evenodd" clip-rule="evenodd" d="M1.02968 24.2565H1.7559C2.37245 24.2565 2.78558 23.8571 2.78558 23.2287V21.5366C2.91658 21.5738 3.32644 21.5994 3.62451 21.5994L17.0299 21.6329C17.3279 21.6329 17.7378 21.6073 17.8687 21.5701V23.2622C17.8687 23.8906 18.2819 24.29 18.8985 24.29H19.6247C20.2487 24.29 20.5 23.8906 20.5 23.2622V15.0723C20.5 12.8979 19.3924 11.6473 17.3559 11.4987V11.8484H14.1169V11.4652H6.38772V11.8484H3.24079V11.4652C1.27099 11.6556 0 12.9087 0 15.037V23.2287C0 23.8571 0.40564 24.2565 1.02968 24.2565ZM2.22129 19.1489C2.22129 19.4449 2.37782 19.6228 2.64075 19.6228L18.0136 19.6563C18.2765 19.6563 18.433 19.4784 18.433 19.1824V14.9064C18.433 14.037 17.8598 13.4754 16.9851 13.4754L3.67887 13.4419C2.79448 13.4419 2.22129 14.0035 2.22129 14.8729V19.1489Z" fill="black"/>
<path d="M6.38772 9.3078C6.38772 8.18212 7.00966 7.57182 8.15651 7.57182H12.3578C13.495 7.57182 14.1169 8.18212 14.1169 9.3078V11.4652L17.3559 11.4987V7.36979C17.3559 5.14912 16.2956 4 14.1169 4H6.61105C4.442 4 3.24079 5.14912 3.24079 7.36979V11.4652C3.42059 11.4478 3.40091 11.4652 3.59569 11.4652H6.38772V9.3078Z" fill="black"/>
<path d="M3.24079 11.8484H6.38772V11.4652H3.59569C3.40091 11.4652 3.42059 11.4478 3.24079 11.4652V11.8484Z" fill="black"/>
<path d="M14.1169 11.8484H17.3559V11.4987L14.1169 11.4652V11.8484Z" fill="black"/>
<path fill-rule="evenodd" clip-rule="evenodd" d="M21.5297 24.2565H22.2559C22.8724 24.2565 23.2856 23.8571 23.2856 23.2287V21.5366C23.4166 21.5738 23.8264 21.5994 24.1245 21.5994L37.5299 21.6329C37.8279 21.6329 38.2378 21.6073 38.3687 21.5701V23.2622C38.3687 23.8906 38.7819 24.29 39.3985 24.29H40.1247C40.7487 24.29 41 23.8906 41 23.2622L40.9805 15.0705C40.9805 12.8962 39.8924 11.6473 37.8559 11.4987V11.8484H34.6169V11.4652H26.8877V11.8484H23.7408V11.4652C21.771 11.6556 20.5 12.9087 20.5 15.037V23.2287C20.5 23.8571 20.9056 24.2565 21.5297 24.2565ZM22.7213 19.1489C22.7213 19.4449 22.8778 19.6228 23.1408 19.6228L38.5136 19.6563C38.7765 19.6563 38.933 19.4784 38.933 19.1824V14.9064C38.933 14.037 38.3598 13.4754 37.4851 13.4754L24.1789 13.4419C23.2945 13.4419 22.7213 14.0035 22.7213 14.8729V19.1489Z" fill="black"/>
<path d="M26.8877 9.3078C26.8877 8.18212 27.5097 7.57182 28.6565 7.57182H32.8578C33.995 7.57182 34.6169 8.18212 34.6169 9.3078V11.4652L37.8559 11.4987V7.36979C37.8559 5.14912 36.7956 4 34.6169 4H27.111C24.942 4 23.7408 5.14912 23.7408 7.36979V11.4652C23.9206 11.4478 23.9009 11.4652 24.0957 11.4652H26.8877V9.3078Z" fill="black"/>
<path d="M23.7408 11.8484H26.8877V11.4652H24.0957C23.9009 11.4652 23.9206 11.4478 23.7408 11.4652V11.8484Z" fill="black"/>
<path d="M34.6169 11.8484H37.8559V11.4987L34.6169 11.4652V11.8484Z" fill="black"/>
</svg>
