<svg width="28" height="28" viewBox="0 0 28 28" fill="none" xmlns="http://www.w3.org/2000/svg">
<path d="M4.90226 26.2654H14.0389C13.9517 26.1175 13.8687 25.9633 13.7996 25.7835L13.1497 24.0433H5.06444C4.56967 24.0433 4.22421 23.7095 4.22421 23.1955V4.08155C4.22421 3.56546 4.56967 3.2221 5.06444 3.2221H19.913C20.4195 3.2221 20.7533 3.56546 20.7533 4.08155V16.5482C21.5012 16.2976 22.28 16.2292 22.9796 16.4526V3.98218C22.9796 2.20726 21.8075 1 20.0869 1H4.90226C3.17 1 2 2.20726 2 3.98218V23.2928C2 25.0698 3.17 26.2654 4.90226 26.2654ZM6.80819 6.46725C7.42037 6.46725 7.91326 5.96475 7.91326 5.35256C7.91326 4.74788 7.42037 4.24749 6.80819 4.24749C6.20561 4.24749 5.70311 4.74788 5.70311 5.35256C5.70311 5.96475 6.20561 6.46725 6.80819 6.46725ZM9.94412 6.46725C10.5584 6.46725 11.0513 5.96475 11.0513 5.35256C11.0513 4.74788 10.5584 4.24749 9.94412 4.24749C9.34154 4.24749 8.84865 4.74788 8.84865 5.35256C8.84865 5.96475 9.34154 6.46725 9.94412 6.46725ZM15.8241 6.01561H18.5595C18.9512 6.01561 19.2172 5.74959 19.2172 5.35045C19.2172 4.95882 18.9512 4.6928 18.5595 4.6928H15.8241C15.4325 4.6928 15.1644 4.95882 15.1644 5.35045C15.1644 5.74959 15.4325 6.01561 15.8241 6.01561ZM3.26749 9.19654H21.7004V7.51584H3.26749V9.19654ZM6.3835 16.603C6.3835 19.9813 9.12991 22.7045 12.463 22.7045C12.5302 22.7045 12.5783 22.7045 12.6498 22.7045C12.4742 22.2215 12.3104 21.7342 12.1348 21.2512C12.1093 21.2491 12.0603 21.2469 12.0348 21.2448C10.1056 21.1647 7.81154 19.293 7.81154 16.603C7.81154 13.9994 9.89092 11.92 12.4946 11.92C15.0094 11.92 17.0584 13.9044 17.1385 16.3726C17.1406 16.427 17.1427 16.4952 17.1352 16.5496C17.6684 16.6056 18.1773 16.7669 18.56 16.9277C18.5771 16.7495 18.575 16.5639 18.5729 16.3858C18.4737 13.1193 15.7906 10.4919 12.4946 10.4919C9.11514 10.4919 6.3835 13.2332 6.3835 16.603Z" fill="black"/>
<path d="M19.2048 19.9133C20.5998 19.9133 20.9298 19.0133 21.9623 19.0133C22.8152 19.0133 23.1571 19.6511 24.2427 19.8128L24.4387 18.5439C23.6104 18.3587 23.0758 17.6945 21.9623 17.6945C20.6022 17.6945 20.1201 18.5945 19.2048 18.5945C18.2875 18.5945 17.7958 17.6945 16.4378 17.6945C15.3318 17.6945 14.7876 18.3587 13.9593 18.5439L14.1552 19.8128C15.2409 19.6511 15.5828 19.0133 16.4378 19.0133C17.4681 19.0133 17.7981 19.9133 19.2048 19.9133ZM16.532 26.2888H21.868C22.5121 26.2888 23.0678 25.9173 23.3169 25.2583L25.7929 18.5908C26.012 17.9833 25.7099 17.5248 25.2972 17.3748C24.8769 17.2269 24.3398 17.3631 24.1131 17.9589L21.7797 24.2031C21.7019 24.411 21.5781 24.4942 21.3927 24.4942H17.0052C16.8198 24.4942 16.6961 24.411 16.6183 24.2031L14.2848 17.9589C14.0678 17.3631 13.521 17.2269 13.1104 17.3748C12.6881 17.5248 12.3956 17.9833 12.6147 18.5908L15.0906 25.2583C15.3302 25.9173 15.8955 26.2888 16.532 26.2888Z" fill="black"/>
</svg>
