<svg width="30" height="28" viewBox="0 0 30 28" fill="none" xmlns="http://www.w3.org/2000/svg">
<path fill-rule="evenodd" clip-rule="evenodd" d="M0 8.99917C0 4.58135 3.58155 1 7.99962 1C12.4177 1 19.9991 2.99979 19.9991 2.99979C21.999 3.49974 21.999 4.49964 21.999 4.99958V12.9988C21.999 13.4987 21.999 14.4986 19.9991 14.9985C19.9991 14.9985 15.1895 16.2672 10.9995 16.7836C10.9995 16.7836 10.6416 20.5662 10.9995 21.9978C11.5363 24.1448 10.3647 25.6322 9.99953 25.9974C8.4996 27.4972 3.99981 28.4971 1.99991 25.9974C0 23.4977 2.99986 15.2439 2.99986 15.2439C1.17102 13.7779 0 11.5253 0 8.99917ZM7.99962 2.99979C4.68607 2.99979 1.99991 5.68581 1.99991 8.99917C1.99991 12.3125 4.68607 14.9985 7.99962 14.9985C11.3132 14.9985 19.9991 12.9988 19.9991 12.9988V4.99958C19.9991 4.99958 11.3132 2.99979 7.99962 2.99979ZM9.49955 8.99917C9.49955 8.17083 8.82801 7.49933 7.99962 7.49933C7.17123 7.49933 6.49969 8.17083 6.49969 8.99917C6.49969 9.82751 7.17123 10.499 7.99962 10.499C8.82801 10.499 9.49955 9.82751 9.49955 8.99917ZM4.99976 16.4169C5.92615 16.7919 6.93877 16.9983 7.99962 16.9983C8.10408 16.9983 8.21031 17.0004 8.31816 17.0025C8.53889 17.0068 8.76644 17.0113 8.99958 16.9983C8.9611 17.2552 8.92426 17.4872 8.89034 17.701C8.65991 19.1528 8.56376 19.7585 8.99958 21.5275L9.00675 21.5566C9.23926 22.5 9.18071 24.6064 8 25C6.5 25.5 4.77006 26.5401 3.5 24C2.68819 22.3764 4.99976 16.4169 4.99976 16.4169Z" fill="black"/>
<path d="M24 5.99951C27 5.99951 26 6.99941 29 6.99941M24 8.9992C27 8.9992 26 9.9991 29 9.9991M24 11.9989C27 11.9989 26 12.9988 29 12.9988" stroke="black" stroke-linecap="round" stroke-linejoin="round"/>
</svg>
