<svg width="28" height="28" viewBox="0 0 28 28" fill="none" xmlns="http://www.w3.org/2000/svg">
<path fill-rule="evenodd" clip-rule="evenodd" d="M6 22.2458C4 22.2458 2.5 21.246 3 19.2464C3 19.2464 3.7108 15.2666 4.45019 11.2481L2.28144 5.93831C2.1471 5.60941 2.38904 5.24925 2.74432 5.24925H5.58041C5.7128 4.57611 5.82623 4.01943 5.91193 3.62982C5.96124 3.40566 6.16105 3.24946 6.39057 3.24957L6.5 3.24963C6.5 0.123473 15.2986 -0.209964 17 2.24982H23C24.5 2.24982 26 3.74953 26 5.24925V15.2474C26 16.7471 24.5 18.2468 23 18.2468H20.8209C20.9338 18.8759 21 19.2464 21 19.2464C21.5 21.246 20 22.2458 18 22.2458C20 22.2458 22 23.2456 22 25.2453C22 25.7452 21.5 26.2451 21 26.2451H3C2.5 26.2451 2.00005 25.7452 2 25.2453C1.99977 23.1715 4 22.2458 6 22.2458ZM7.42199 5.65481C7.46727 5.4194 7.67327 5.24925 7.91299 5.24925H16.087C16.3267 5.24925 16.5327 5.4194 16.578 5.65481L18.8857 17.6524C18.945 17.9607 18.7087 18.2468 18.3947 18.2468H5.60534C5.29132 18.2468 5.05502 17.9607 5.11434 17.6524L7.42199 5.65481ZM22 16.2472H20.4606C19.8107 12.65 18.741 6.78799 18.2191 4.24944H22C23.5 4.24944 24 4.74935 24 6.24906V14.2476C24 15.7473 23.5 16.2472 22 16.2472Z" fill="black"/>
</svg>
