<svg width="28" height="28" viewBox="0 0 28 28" fill="none" xmlns="http://www.w3.org/2000/svg">
<path d="M25.1414 14.0726C25.1414 13.7185 24.9968 13.3751 24.7308 13.1187L17.0119 5.42117C16.7161 5.12328 16.4088 5 16.0791 5C15.353 5 14.8254 5.5189 14.8254 6.22507C14.8254 6.58858 14.9634 6.90241 15.1973 7.1342L17.8223 9.79342L22.1963 13.793L22.6036 13.032L18.5496 12.7934H4.2928C3.52312 12.7934 3 13.3177 3 14.0726C3 14.8276 3.52312 15.3519 4.2928 15.3519H18.5496L22.6036 15.1133L22.1963 14.364L17.8223 18.3519L15.1973 21.009C14.9634 21.2291 14.8254 21.5546 14.8254 21.9181C14.8254 22.6243 15.353 23.1432 16.0791 23.1432C16.4088 23.1432 16.7161 23.0103 16.9926 22.7412L24.7308 15.0265C24.9968 14.7701 25.1414 14.4268 25.1414 14.0726Z" fill="black"/>
</svg>
