<svg width="29" height="28" viewBox="0 0 29 28" fill="none" xmlns="http://www.w3.org/2000/svg">
<path fill-rule="evenodd" clip-rule="evenodd" d="M1.9754e-06 5.05263C-0.00111318 4.47128 0.463691 4 1.03568 4C1.60767 4 2.07136 4.47128 2.07136 5.05263V6.10526H26.9276V5.05263C26.9276 4.47128 27.3913 4 27.9633 4C28.5353 4 28.9979 4.47128 28.999 5.05263C29 5.57895 29 22.4211 29 22.9474C29 23.5287 28.5363 24 27.9643 24C27.3923 24 26.9286 23.5287 26.9286 22.9474C26.9286 22.4211 26.9276 21.8947 26.9276 21.8947H2.07136C2.07136 21.8947 2.07237 22.4211 2.07136 22.9474C2.07024 23.5287 1.60767 24 1.03568 24C0.463691 24 -0.00111298 23.5287 1.9754e-06 22.9474C0.00101138 22.4211 0.00101156 5.57895 1.9754e-06 5.05263ZM2.07136 8.21053V16.6316H4.14372V8.21053H2.07136ZM6.21508 16.6316V8.21053H8.80428V16.6316H6.21508ZM22.7859 8.21053V16.6316H20.1957L20.1967 8.21053H22.7859ZM26.9276 16.6316V8.21053H24.8573V16.6316H26.9276ZM26.9276 19.7895H2.07136V18.7368H26.9276V19.7895ZM18.1254 16.6316L18.1254 8.21053H15.5362V16.6316H18.1254ZM10.8756 16.6316V8.21053H13.4648V16.6316H10.8756Z" fill="black"/>
</svg>
