<svg width="37" height="28" viewBox="0 0 37 28" fill="none" xmlns="http://www.w3.org/2000/svg">
<path d="M3.61219 11.1353H5.81624V7.07101C5.81624 6.5378 6.17343 6.19233 6.6757 6.19233H16.3641C16.8759 6.19233 17.2256 6.5378 17.2256 7.07101V16.4748H19.4297V7.03187C19.4297 5.21078 18.2423 4 16.4873 4H6.56413C4.79742 4 3.61219 5.21078 3.61219 7.03187V11.1353ZM33.3157 11.1353V7.03187C33.3157 5.21078 32.1283 4 30.3616 4H20.168C18.4109 4 17.2256 5.21078 17.2256 7.03187V16.4748H19.4297V7.07101C19.4297 6.5378 19.7773 6.19233 20.2912 6.19233H30.248C30.7566 6.19233 31.1095 6.53359 31.1095 7.07101V11.1353H33.3157ZM0 19.5838C0 21.3473 1.16601 22.5175 2.9039 22.5175H33.7514C35.4893 22.5175 36.6574 21.3473 36.6574 19.5838V12.4166C36.6574 10.6628 35.4893 9.48086 33.7514 9.48086H32.1363C30.408 9.48086 29.2441 10.6628 29.2441 12.4166V15.1068H7.42288V12.4166C7.42288 10.6628 6.24515 9.48086 4.51687 9.48086H2.9039C1.16601 9.48086 0 10.6628 0 12.4166V19.5838ZM2.21366 19.5604V12.4401C2.21366 11.9751 2.52515 11.6732 3.00187 11.6732H4.40718C4.89562 11.6732 5.20922 11.9751 5.20922 12.4401V17.2991H31.4482V12.4401C31.4482 11.9751 31.7672 11.6732 32.2481 11.6732H33.6534C34.1301 11.6732 34.4512 11.9751 34.4512 12.4401V19.5604C34.4512 20.0254 34.1301 20.3252 33.6534 20.3252H3.00187C2.52515 20.3252 2.21366 20.0254 2.21366 19.5604ZM4.31414 24.925H5.05968C5.70515 24.925 6.13007 24.5139 6.13007 23.8684V21.3187H3.24375V23.8684C3.24375 24.5139 3.66867 24.925 4.31414 24.925ZM31.5155 24.925H32.2526C32.9381 24.925 33.3926 24.4801 33.3926 23.7988V21.1942H30.3776V23.7988C30.3776 24.4801 30.8395 24.925 31.5155 24.925Z" fill="black"/>
</svg>
