<svg width="29" height="29" viewBox="0 0 29 29" fill="none" xmlns="http://www.w3.org/2000/svg">
<path d="M15.8123 18.0881C15.8123 21.3436 18.4185 22.9978 18.4185 25.7493C18.4185 26.3864 18.2854 26.9053 17.9125 27.5753C17.655 28.0352 17.819 28.4735 18.1434 28.7128C18.5528 28.9818 19.136 28.9342 19.4564 28.3605C19.9303 27.5575 20.1656 26.6758 20.1656 25.7493C20.1656 22.4458 17.5497 20.8012 17.5497 18.0881C17.5497 17.4511 17.6924 16.9322 18.0728 16.2471C18.3271 15.8043 18.1664 15.3459 17.8089 15.1129C17.4133 14.8673 16.8281 14.917 16.5215 15.4577C16.0284 16.2607 15.8123 17.1616 15.8123 18.0881ZM12.2067 18.0977C12.2067 21.3436 14.8087 23.0074 14.8087 25.7493C14.8087 26.396 14.6798 26.9149 14.2931 27.585C14.0493 28.0352 14.2113 28.4831 14.5357 28.7224C14.9409 28.9818 15.5303 28.9439 15.8507 28.3818C16.3225 27.5671 16.5557 26.6758 16.5557 25.7493C16.5557 22.4554 13.9441 20.8108 13.9441 18.0977C13.9441 17.4511 14.0826 16.9322 14.4576 16.2567C14.7173 15.814 14.5586 15.3459 14.1991 15.1129C13.8035 14.8673 13.2129 14.917 12.9117 15.4673C12.4186 16.2724 12.2067 17.1712 12.2067 18.0977ZM8.59687 18.0881C8.59687 21.3436 11.201 22.9978 11.201 25.7493C11.201 26.3864 11.07 26.9053 10.6832 27.5753C10.4299 28.0352 10.6015 28.4735 10.9258 28.7128C11.3311 28.9818 11.9205 28.9342 12.2409 28.3605C12.7148 27.5575 12.948 26.6758 12.948 25.7493C12.948 22.4458 10.3343 20.8012 10.3343 18.0881C10.3343 17.4511 10.4728 16.9322 10.8478 16.2471C11.1096 15.8043 10.9392 15.3459 10.5914 15.1129C10.1957 14.8673 9.60304 14.917 9.29437 15.4577C8.81086 16.2607 8.59687 17.1616 8.59687 18.0881ZM19.6446 18.6208C19.6446 18.9124 19.8946 19.1189 20.2 19.0849L21.16 19.0073L20.6029 19.8011C20.4424 20.032 20.4892 20.362 20.7414 20.5132C20.9936 20.6782 21.3321 20.56 21.4438 20.2706L21.8521 19.4022L22.2764 20.2919C22.4041 20.5546 22.7106 20.6707 22.9703 20.5249C23.2129 20.3908 23.279 20.0374 23.1035 19.7894L22.5527 19.0115L23.5063 19.0945C23.8 19.1285 24.0618 18.922 24.0618 18.6208C24.0618 18.31 23.8213 18.1015 23.516 18.1354L22.5452 18.2088L23.1056 17.4117C23.2715 17.1637 23.23 16.8466 22.9703 16.705C22.7106 16.5593 22.3956 16.6603 22.2742 16.9305L21.8564 17.8052L21.4513 16.938C21.3374 16.6582 21.0107 16.54 20.7414 16.6975C20.4892 16.8316 20.4328 17.1616 20.6029 17.4117L21.1558 18.2088L20.2 18.145C19.885 18.1228 19.6446 18.3197 19.6446 18.6208ZM4.77539 25.4032C4.77539 25.7064 5.01586 25.9225 5.32125 25.8885L6.28453 25.8131L5.72414 26.6123C5.55821 26.8507 5.60297 27.1731 5.85727 27.3093C6.12656 27.4626 6.43312 27.3583 6.55125 27.086L6.97336 26.2134L7.39125 27.0721C7.49555 27.3616 7.82437 27.4701 8.09367 27.3264C8.34586 27.1924 8.40445 26.8549 8.23429 26.6144L7.67508 25.8089L8.63719 25.8789C8.94257 25.9033 9.18304 25.6968 9.18304 25.4032C9.18304 25.1116 8.93297 24.9051 8.63719 24.937L7.67179 25.0125L8.22468 24.2228C8.38312 23.9941 8.33625 23.6641 8.09367 23.5108C7.8457 23.3437 7.49977 23.4597 7.38586 23.7513L6.97125 24.6164L6.55336 23.7342C6.43195 23.4735 6.12656 23.3533 5.85727 23.497C5.6168 23.6289 5.54438 23.9866 5.72203 24.2346L6.27281 25.0125L5.33086 24.9274C5.03508 24.8934 4.77539 25.102 4.77539 25.4032Z" fill="black"/>
<path d="M0 2.91538V10.3983C0 12.1947 1.1114 13.3158 2.87694 13.3158H25.8886C27.6541 13.3158 28.7655 12.1947 28.7655 10.3983V2.91538C28.7655 1.12101 27.6541 0 25.8886 0H2.87694C1.1114 0 0 1.12101 0 2.91538ZM2.27061 3.09397C2.27061 2.57741 2.58702 2.27061 3.11319 2.27061H25.6523C26.1785 2.27061 26.4949 2.57741 26.4949 3.09397V10.2218C26.4949 10.7362 26.1785 11.043 25.6523 11.043H3.11319C2.58702 11.043 2.27061 10.7362 2.27061 10.2218V3.09397ZM19.0866 9.24819C19.0866 9.59952 19.3751 9.8742 19.7222 9.8742H24.2878C24.6328 9.8742 24.9213 9.59952 24.9213 9.24819C24.9213 8.89147 24.6328 8.61046 24.2878 8.61046H19.7222C19.3751 8.61046 19.0866 8.89147 19.0866 9.24819ZM19.0866 6.77296C19.0866 7.11257 19.3751 7.39686 19.7222 7.39686H24.2878C24.6328 7.39686 24.9213 7.11257 24.9213 6.77296C24.9213 6.41624 24.6328 6.12562 24.2878 6.12562H19.7222C19.3751 6.12562 19.0866 6.41624 19.0866 6.77296ZM11.5059 9.24819C11.5059 9.59952 11.7827 9.8742 12.1437 9.8742H16.7051C17.0426 9.8742 17.3311 9.59952 17.3311 9.24819C17.3311 8.89147 17.0426 8.61046 16.7051 8.61046H12.1437C11.7827 8.61046 11.5059 8.89147 11.5059 9.24819ZM11.5059 6.77296C11.5059 7.11257 11.7827 7.39686 12.1437 7.39686H16.7051C17.0426 7.39686 17.3311 7.11257 17.3311 6.77296C17.3311 6.41624 17.0426 6.12562 16.7051 6.12562H12.1437C11.7827 6.12562 11.5059 6.41624 11.5059 6.77296ZM3.90186 9.24819C3.90186 9.59952 4.19038 9.8742 4.52576 9.8742H9.09139C9.44811 9.8742 9.72702 9.59952 9.72702 9.24819C9.72702 8.89147 9.44811 8.61046 9.09139 8.61046H4.52576C4.19038 8.61046 3.90186 8.89147 3.90186 9.24819ZM3.90186 6.77296C3.90186 7.11257 4.19038 7.39686 4.52576 7.39686H9.09139C9.44811 7.39686 9.72702 7.11257 9.72702 6.77296C9.72702 6.41624 9.44811 6.12562 9.09139 6.12562H4.52576C4.19038 6.12562 3.90186 6.41624 3.90186 6.77296Z" fill="black"/>
</svg>
