<svg width="28" height="28" viewBox="0 0 28 28" fill="none" xmlns="http://www.w3.org/2000/svg">
<path d="M8.05321 26.6835L11.6248 22.4397C11.9752 22.019 12.038 21.9168 12.1787 21.479L12.3985 20.7981L10.4359 18.336L9.8743 20.9254L6.36009 25.0905C5.2079 26.4737 7.10657 27.824 8.05321 26.6835ZM16.6735 26.3214C17.4296 27.8495 19.685 26.905 18.8661 25.2437L16.448 20.3469C16.2584 19.9794 16.0123 19.5789 15.7791 19.2456L14.2611 17.0926L14.3602 16.7931C14.7566 15.5491 14.9216 14.8119 15.0132 13.5923L15.2518 10.1634C15.3711 8.50515 14.3839 7.26109 12.6978 7.26109C11.4378 7.26109 10.573 7.90117 9.42149 9.02921L7.60532 10.8177C7.01094 11.4004 6.8129 11.8839 6.7522 12.6709L6.53704 15.4724C6.47423 16.2051 6.88626 16.7226 7.56032 16.746C8.24821 16.795 8.66985 16.383 8.73055 15.6076L9.00008 12.5514L9.82813 11.8033C10.1234 11.5389 10.5092 11.7116 10.4933 12.0259L10.3079 14.5691C10.2024 15.8784 10.5008 16.5226 11.4209 17.6697L13.8273 20.6821C14.0595 20.9847 14.0872 21.0976 14.1948 21.2936L16.6735 26.3214ZM20.8339 11.8884H18.1142L16.4593 10.0544L16.2495 13.0115L16.8322 13.592C17.2198 13.9797 17.5627 14.1032 18.2848 14.1032H20.8339C21.5729 14.1032 22.0627 13.6816 22.0627 12.9958C22.0627 12.3313 21.5591 11.8884 20.8339 11.8884ZM14.0441 6.25492C15.4904 6.25492 16.6609 5.07273 16.6609 3.6264C16.6609 2.17047 15.4904 1 14.0441 1C12.5881 1 11.4156 2.17047 11.4156 3.6264C11.4156 5.07273 12.5881 6.25492 14.0441 6.25492Z" fill="black"/>
</svg>
