<svg width="28" height="28" viewBox="0 0 28 28" fill="none" xmlns="http://www.w3.org/2000/svg">
<path fill-rule="evenodd" clip-rule="evenodd" d="M4.82265 24.26H5.54887C6.16541 24.26 6.57855 23.8605 6.57855 23.232V21.5397C6.70955 21.5769 7.11941 21.6025 7.41748 21.6025L20.8228 21.636C21.1209 21.636 21.5307 21.6104 21.6617 21.5732V23.2655C21.6617 23.894 22.0748 24.2935 22.6914 24.2935H23.4176C24.0416 24.2935 24.293 23.894 24.293 23.2655L24.2734 15.0725C24.2734 12.8977 23.1854 11.6487 21.1488 11.5V11.8497H17.9099V11.4665H10.1807V11.8497H7.03375V11.4665C5.06396 11.6569 3.79297 12.9102 3.79297 15.0389V23.232C3.79297 23.8605 4.19861 24.26 4.82265 24.26ZM6.01426 19.1515C6.01426 19.4475 6.17079 19.6255 6.43372 19.6255L21.8066 19.659C22.0694 19.659 22.226 19.4811 22.226 19.185V14.9083C22.226 14.0387 21.6528 13.477 20.778 13.477L7.47184 13.4435C6.58745 13.4435 6.01426 14.0052 6.01426 14.8748V19.1515Z" fill="black"/>
<path d="M10.1807 9.30872C10.1807 8.18284 10.8026 7.57243 11.9495 7.57243H16.1507C17.288 7.57243 17.9099 8.18284 17.9099 9.30872V11.4665L21.1488 11.5V7.37037C21.1488 5.14932 20.0885 4 17.9099 4H10.404C8.23497 4 7.03375 5.14932 7.03375 7.37037V11.4665C7.21356 11.4491 7.19388 11.4665 7.38866 11.4665H10.1807V9.30872Z" fill="black"/>
<path d="M7.03375 11.8497H10.1807V11.4665H7.38866C7.19388 11.4665 7.21356 11.4491 7.03375 11.4665V11.8497Z" fill="black"/>
<path d="M17.9099 11.8497H21.1488V11.5L17.9099 11.4665V11.8497Z" fill="black"/>
</svg>
