<svg width="28" height="28" viewBox="0 0 28 28" fill="none" xmlns="http://www.w3.org/2000/svg">
<path d="M4.15891 12.0542C2.30548 12.9055 2.78665 15.4341 4.81047 15.4437L13.2859 15.4726C13.4139 15.4726 13.4301 15.4824 13.4301 15.6188L13.4493 24.0366C13.4589 26.116 16.0185 26.5011 16.9007 24.5783L25.5334 5.92554C26.4526 3.91484 24.9013 2.47345 22.9002 3.40227L4.15891 12.0542ZM7.05434 13.2296C7.00114 13.2296 6.98731 13.1827 7.05223 13.1551L22.8881 5.91873C22.9722 5.88358 23.0158 5.90491 22.9743 6.00709L15.6995 21.8312C15.6836 21.8823 15.6367 21.8685 15.6367 21.8174L15.689 14.2958C15.6911 13.5734 15.3025 13.1827 14.5705 13.1848L7.05434 13.2296Z" fill="black"/>
</svg>
