<svg xmlns="http://www.w3.org/2000/svg" enable-background="new 0 0 128 128" viewBox="0 0 128 128"><path fill="#1A1D1A" d="M113.6,51.6c-1.7,2.4-3.8,5.3-6,8.1l8.4,52.7L88.9,99.9L64,116.9L39.1,99.9L12,112.4L22.2,48l21.4-9.8L64,52
		l6.3-4.3c-1.3-2-2.4-4.2-3.3-6.4l-3,2L44.2,29.9L15.7,43.1L2.8,124.5l35.6-16.4L64,125.5l25.6-17.4l35.6,16.4L113.6,51.6z"/><path fill="#1A1D1A" d="M75.4,45.8C79.9,52,88,62.4,91.6,67c0.9,1.2,2.7,1.2,3.7,0c3.8-4.6,11.1-14.6,15.9-21.2c3.7-5,6-10.9,6.5-17.1
		c0.1-0.6,0.1-1.2,0.1-1.7c0-13.4-10.8-24.3-24.2-24.5h-0.3h0H93C79.7,2.6,68.8,13.6,68.8,27c0,0.5,0,1.1,0.1,1.7
		C69.4,34.9,71.8,40.8,75.4,45.8z M93.3,12.8c8.6,0,15.4,6.8,15.4,15.4s-6.8,15.4-15.4,15.4c-8.6,0-15.4-6.8-15.4-15.4
		S84.7,12.8,93.3,12.8z"/></svg>